Coordinates
version=1
nRows=6
nColumns=63
inDegrees=yes

Units are S.I. units (second, meters, Newtons, ...)
If the header above contains a line with 'inDegrees', this indicates whether rotational values are in degrees (yes) or radians (no).

endheader
time	pelvis_tilt	pelvis_list	pelvis_rotation	pelvis_tx	pelvis_ty	pelvis_tz	hip_flexion_r	hip_adduction_r	hip_rotation_r	knee_angle_r	knee_angle_r_beta	ankle_angle_r	subtalar_angle_r	mtp_angle_r	hip_flexion_l	hip_adduction_l	hip_rotation_l	knee_angle_l	knee_angle_l_beta	ankle_angle_l	subtalar_angle_l	mtp_angle_l	L5_S1_Flex_Ext	L5_S1_Lat_Bending	L5_S1_axial_rotation	L4_L5_Flex_Ext	L4_L5_Lat_Bending	L4_L5_axial_rotation	L3_L4_Flex_Ext	L3_L4_Lat_Bending	L3_L4_axial_rotation	L2_L3_Flex_Ext	L2_L3_Lat_Bending	L2_L3_axial_rotation	L1_L2_Flex_Ext	L1_L2_Lat_Bending	L1_L2_axial_rotation	L1_T12_Flex_Ext	L1_T12_Lat_Bending	L1_T12_axial_rotation	Abs_r3	Abs_r2	Abs_r1	Abs_t1	Abs_t2	neck_flexion	neck_bending	neck_rotation	arm_flex_r	arm_add_r	arm_rot_r	elbow_flex_r	pro_sup_r	wrist_flex_r	wrist_dev_r	arm_flex_l	arm_add_l	arm_rot_l	elbow_flex_l	pro_sup_l	wrist_flex_l	wrist_dev_l
      1.01694915	      0.16825940	     -5.62378543	     95.71184868	      0.19838969	      0.65824941	      0.62037450	      3.97475254	      1.63386932	     -4.85777059	      2.66248493	      0.04646913	     21.44026002	     -4.46180373	      0.00000000	      6.98235629	     -1.75133597	     -0.29620335	      5.30348188	      0.09256322	     27.31703850	     10.35891799	      0.00000000	     -0.19701324	      0.51744978	     -0.89515685	     -0.36587328	      0.68820821	     -0.95110416	     -0.32367305	      1.25812740	     -0.95110416	     -0.22516643	      1.25812740	     -0.78326225	     -0.18294649	      1.05518360	     -0.72731494	     -0.11257336	      0.80152971	     -0.67136764	     -1.40724585	      5.85349544	     -4.97859388	      0.00000000	      0.00000000	     26.14373634	     -5.50064762	      1.45395185	     13.68443640	    -15.44960944	     73.08774093	     24.66537815	     43.44225681	     -2.28386938	      1.13760538	      4.53288941	    -11.78360229	     36.49433752	     39.20815593	     81.96355468	    -10.46671334	      0.64451954
      1.03389831	      0.12336224	     -5.49753894	     95.72790701	      0.19857996	      0.65813574	      0.62053504	      3.78154039	      1.63180233	     -3.92016164	      2.58591260	      0.04513269	     20.77825455	     -6.09100581	      0.00000000	      6.86233130	     -1.73987901	     -0.26992550	      5.39927826	      0.09423518	     27.28210855	     10.45944139	      0.00000000	     -0.20793224	      0.50370530	     -0.87995000	     -0.38615096	      0.66992805	     -0.93494688	     -0.34161187	      1.22470907	     -0.93494688	     -0.23764575	      1.22470907	     -0.76995625	     -0.19308587	      1.02715585	     -0.71495938	     -0.11881248	      0.78023951	     -0.65996250	     -1.48523917	      5.69801513	     -4.89401792	      0.00000000	      0.00000000	     25.94424236	     -5.33434081	      1.18624327	     13.79088038	    -15.38553132	     72.80013060	     24.67944794	     45.55251937	     -2.59503192	      1.06449884	      4.15243673	    -11.66138703	     34.79112881	     39.71999693	     83.81062048	    -10.18668539	      1.74961385
      1.05084746	      0.09166926	     -5.45384360	     95.59312168	      0.19895089	      0.65815473	      0.62072539	      3.68826576	      1.65876417	     -2.32217606	      2.45421540	      0.04283414	     19.82897259	     -8.50343598	      0.00000000	      6.80660749	     -1.74100047	     -0.35491498	      5.43371489	      0.09483622	     27.21036411	     10.43694226	      0.00000000	     -0.21228761	      0.49488363	     -0.80678104	     -0.39423932	      0.65819522	     -0.85720486	     -0.34876732	      1.20326005	     -0.85720486	     -0.24262351	      1.20326005	     -0.70593341	     -0.19713028	      1.00916669	     -0.65550960	     -0.12130114	      0.76657474	     -0.60508578	     -1.51634918	      5.59822255	     -4.48707412	      0.00000000	      0.00000000	     25.82487825	     -5.41747240	      0.74609448	     13.57405481	    -15.38075255	     71.11394353	     24.78396975	     48.78892712	     -2.84233588	      1.12468860	      4.42960580	    -11.69993587	     35.29270601	     39.55651569	     83.84018242	    -10.28514439	      1.63015346
      1.06779661	      0.13914365	     -5.45056560	     95.42368758	      0.19935713	      0.65839797	      0.62088917	      3.76053469	      1.68748252	     -3.63032614	      2.54514814	      0.04442121	     19.96429412	     -6.55463206	      0.00000000	      6.75442833	     -1.81615469	     -0.38769492	      5.32820190	      0.09299467	     27.06820472	     10.25664997	      0.00000000	     -0.21787643	      0.50155553	     -0.77006610	     -0.40461833	      0.66706885	     -0.81819523	     -0.35794919	      1.21948211	     -0.81819523	     -0.24901098	      1.21948211	     -0.67380784	     -0.20232006	      1.02277203	     -0.62567871	     -0.12449459	      0.77690951	     -0.57754958	     -1.55626958	      5.67369643	     -4.28287664	      0.00000000	      0.00000000	     25.85028005	     -5.50410543	      0.88067935	     13.70853699	    -15.33593773	     71.00726628	     24.79740471	     49.09698808	     -3.24437866	      1.27504611	      4.77322153	    -11.75149793	     36.21247817	     39.27332398	     82.25765682	    -10.24841092	      1.69572748
      1.08474576	      0.15100200	     -5.58649042	     95.38159489	      0.19940842	      0.65843849	      0.62085204	      3.83496826	      1.76722408	     -0.73908901	      2.29947959	      0.04013349	     18.45681216	    -11.04040697	      0.00000000	      6.91462829	     -1.82584776	     -0.48182405	      5.35426854	      0.09344962	     27.08886129	     10.37959977	      0.00000000	     -0.20699828	      0.50530767	     -0.77457484	     -0.38441651	      0.67205921	     -0.82298577	     -0.34007748	      1.22860508	     -0.82298577	     -0.23657834	      1.22860508	     -0.67775299	     -0.19221861	      1.03042341	     -0.62934206	     -0.11827882	      0.78272159	     -0.58093113	     -1.47856805	      5.71614146	     -4.30795289	      0.00000000	      0.00000000	     26.01124424	     -5.50023332	      0.99911555	     13.55686135	    -15.40458920	     68.96474214	     25.00256088	     55.38665822	     -3.23964225	      0.95011501	      4.79813410	    -11.49131379	     36.07250410	     38.82924685	     83.63480575	    -11.11639972	      1.16742189
      1.10169492	      0.16905359	     -5.73185685	     95.29277730	      0.19965478	      0.65862576	      0.62092583	      4.00978133	      1.79555109	     -0.23703930	      2.23762452	      0.03905392	     17.94514579	    -11.89674986	      0.00000000	      7.04545448	     -1.84053313	     -0.34915947	      5.27145783	      0.09200430	     26.92800426	     10.10502014	      0.00000000	     -0.19701445	      0.51041135	     -0.77164050	     -0.36587553	      0.67884709	     -0.81986803	     -0.32367504	      1.24101415	     -0.81986803	     -0.22516781	      1.24101415	     -0.67518544	     -0.18294762	      1.04083082	     -0.62695791	     -0.11257406	      0.79062718	     -0.57873037	     -1.40725450	      5.77387523	     -4.29163296	      0.00000000	      0.00000000	     26.16745877	     -5.59402569	      1.25477196	     13.58276677	    -15.39338340	     68.12837932	     25.04996564	     58.43753445	     -3.27005996	      0.60473202	      5.02119408	    -11.30735212	     36.38290111	     38.22378782	     83.49649142	    -11.32307369	      0.70354475
